<?xml version="1.0" encoding="utf-8"?>
<svg id="master-artboard" viewBox="0 0 100 50" version="1.1" xmlns="http://www.w3.org/2000/svg" x="0px" y="0px" style="enable-background:new 0 0 336 235.2;" width="100px" height="50px"><rect id="ee-background" x="0" y="0" width="100" height="50" style="fill: white; fill-opacity: 0; pointer-events: none;"/>





















































































































































<path d="M 382.0627136230469 250 L 382.0627136230469 221.4499969482422 L 385.3827209472656 221.4499969482422 L 385.3827209472656 246.99000549316406 L 397.97271728515625 246.99000549316406 L 397.97271728515625 250 L 382.0627136230469 250 ZM 421.7170104980469 239.27999877929688 C 421.7170104980469 242.76666259765625 420.84033203125 245.49000549316406 419.0870056152344 247.4499969482422 C 417.3269958496094 249.41000366210938 414.8970031738281 250.38999938964844 411.7969970703125 250.38999938964844 C 409.8836669921875 250.38999938964844 408.1836853027344 249.94000244140625 406.697021484375 249.0399932861328 C 405.2170104980469 248.14666748046875 404.07366943359375 246.86000061035156 403.2669982910156 245.17999267578125 C 402.4603271484375 243.5 402.0570068359375 241.53334045410156 402.0570068359375 239.27999877929688 C 402.0570068359375 235.7866668701172 402.927001953125 233.06666564941406 404.6669921875 231.1199951171875 C 406.4136657714844 229.17333984375 408.8370056152344 228.1999969482422 411.93701171875 228.1999969482422 C 414.9303283691406 228.1999969482422 417.3103332519531 229.19667053222656 419.0769958496094 231.19000244140625 C 420.8370056152344 233.18333435058594 421.7170104980469 235.8800048828125 421.7170104980469 239.27999877929688 M 405.4169921875 239.27999877929688 C 405.4169921875 242.01333618164062 405.96368408203125 244.09666442871094 407.0570068359375 245.52999877929688 C 408.15032958984375 246.9633331298828 409.75701904296875 247.67999267578125 411.87701416015625 247.67999267578125 C 413.99700927734375 247.67999267578125 415.60699462890625 246.96665954589844 416.7070007324219 245.5399932861328 C 417.8070068359375 244.1133270263672 418.35699462890625 242.02667236328125 418.35699462890625 239.27999877929688 C 418.35699462890625 236.55999755859375 417.8070068359375 234.4933319091797 416.7070007324219 233.0800018310547 C 415.60699462890625 231.6666717529297 413.9836730957031 230.95999145507812 411.8370056152344 230.95999145507812 C 409.7170104980469 230.95999145507812 408.11700439453125 231.6566619873047 407.0370178222656 233.0500030517578 C 405.9570007324219 234.44332885742188 405.4169921875 236.52000427246094 405.4169921875 239.27999877929688 ZM 445.2021179199219 228.58999633789062 L 445.2021179199219 230.63999938964844 L 441.23211669921875 231.11000061035156 C 441.5987854003906 231.57000732421875 441.9254455566406 232.1666717529297 442.2121276855469 232.89999389648438 C 442.498779296875 233.63333129882812 442.6421203613281 234.4633331298828 442.6421203613281 235.38999938964844 C 442.6421203613281 237.49000549316406 441.9254455566406 239.163330078125 440.49212646484375 240.41000366210938 C 439.0588073730469 241.663330078125 437.0921325683594 242.2899932861328 434.5921325683594 242.2899932861328 C 433.9521179199219 242.2899932861328 433.35211181640625 242.23666381835938 432.7921142578125 242.1300048828125 C 431.4121398925781 242.85665893554688 430.7221374511719 243.77333068847656 430.7221374511719 244.8800048828125 C 430.7221374511719 245.46665954589844 430.9654541015625 245.89999389648438 431.4521179199219 246.17999267578125 C 431.93212890625 246.4600067138672 432.7587890625 246.60000610351562 433.93212890625 246.60000610351562 L 437.7221374511719 246.60000610351562 C 440.03546142578125 246.60000610351562 441.8154602050781 247.08999633789062 443.0621337890625 248.07000732421875 C 444.3021240234375 249.0433349609375 444.922119140625 250.4600067138672 444.922119140625 252.32000732421875 C 444.922119140625 254.69332885742188 443.9721374511719 256.5 442.0721130371094 257.739990234375 C 440.172119140625 258.9866638183594 437.3988037109375 259.6099853515625 433.75213623046875 259.6099853515625 C 430.9521179199219 259.6099853515625 428.79547119140625 259.0899963378906 427.2821350097656 258.04998779296875 C 425.7621154785156 257.0033264160156 425.00213623046875 255.52999877929688 425.00213623046875 253.6300048828125 C 425.00213623046875 252.3300018310547 425.4187927246094 251.20333862304688 426.25213623046875 250.25 C 427.08544921875 249.30332946777344 428.2587890625 248.66000366210938 429.7721252441406 248.32000732421875 C 429.2254638671875 248.07333374023438 428.7654724121094 247.69000244140625 428.3921203613281 247.1699981689453 C 428.018798828125 246.64999389648438 427.8321228027344 246.0433349609375 427.8321228027344 245.35000610351562 C 427.8321228027344 244.57000732421875 428.0421142578125 243.8866729736328 428.4621276855469 243.3000030517578 C 428.8754577636719 242.7133331298828 429.5321350097656 242.14666748046875 430.43212890625 241.60000610351562 C 429.3254699707031 241.14666748046875 428.4254455566406 240.3733367919922 427.73211669921875 239.27999877929688 C 427.0321350097656 238.18666076660156 426.68212890625 236.93666076660156 426.68212890625 235.52999877929688 C 426.68212890625 233.18333435058594 427.3854675292969 231.3766632080078 428.7921142578125 230.11000061035156 C 430.19879150390625 228.836669921875 432.192138671875 228.1999969482422 434.7721252441406 228.1999969482422 C 435.8921203613281 228.1999969482422 436.8988037109375 228.3300018310547 437.7921142578125 228.58999633789062 L 445.2021179199219 228.58999633789062 M 428.13214111328125 253.58999633789062 C 428.13214111328125 254.75 428.6188049316406 255.6300048828125 429.5921325683594 256.2300109863281 C 430.5721130371094 256.8299865722656 431.9721374511719 257.1300048828125 433.7921142578125 257.1300048828125 C 436.5121154785156 257.1300048828125 438.52880859375 256.72332763671875 439.8421325683594 255.91000366210938 C 441.1488037109375 255.09666442871094 441.8021240234375 253.9933319091797 441.8021240234375 252.60000610351562 C 441.8021240234375 251.44000244140625 441.442138671875 250.6366729736328 440.7221374511719 250.19000244140625 C 440.0087890625 249.73666381835938 438.6621398925781 249.50999450683594 436.68212890625 249.50999450683594 L 432.7921142578125 249.50999450683594 C 431.3254699707031 249.50999450683594 430.18212890625 249.8633270263672 429.36212158203125 250.57000732421875 C 428.5421142578125 251.27000427246094 428.13214111328125 252.27667236328125 428.13214111328125 253.58999633789062 M 429.88214111328125 235.4499969482422 C 429.88214111328125 236.9499969482422 430.3054504394531 238.0833282470703 431.1521301269531 238.85000610351562 C 431.998779296875 239.61666870117188 433.1788024902344 240 434.692138671875 240 C 437.8587951660156 240 439.442138671875 238.4633331298828 439.442138671875 235.38999938964844 C 439.442138671875 232.17666625976562 437.83880615234375 230.57000732421875 434.63214111328125 230.57000732421875 C 433.11212158203125 230.57000732421875 431.942138671875 230.97999572753906 431.12213134765625 231.8000030517578 C 430.29547119140625 232.6199951171875 429.88214111328125 233.836669921875 429.88214111328125 235.4499969482422 ZM 468.38214111328125 239.27999877929688 C 468.38214111328125 242.76666259765625 467.5054626464844 245.49000549316406 465.75213623046875 247.4499969482422 C 463.99212646484375 249.41000366210938 461.5621337890625 250.38999938964844 458.4621276855469 250.38999938964844 C 456.5487976074219 250.38999938964844 454.84881591796875 249.94000244140625 453.3621520996094 249.0399932861328 C 451.88214111328125 248.14666748046875 450.7388000488281 246.86000061035156 449.93212890625 245.17999267578125 C 449.1254577636719 243.5 448.7221374511719 241.53334045410156 448.7221374511719 239.27999877929688 C 448.7221374511719 235.7866668701172 449.5921325683594 233.06666564941406 451.3321228027344 231.1199951171875 C 453.07879638671875 229.17333984375 455.50213623046875 228.1999969482422 458.6021423339844 228.1999969482422 C 461.595458984375 228.1999969482422 463.9754638671875 229.19667053222656 465.74212646484375 231.19000244140625 C 467.50213623046875 233.18333435058594 468.38214111328125 235.8800048828125 468.38214111328125 239.27999877929688 M 452.0821228027344 239.27999877929688 C 452.0821228027344 242.01333618164062 452.6288146972656 244.09666442871094 453.7221374511719 245.52999877929688 C 454.8154602050781 246.9633331298828 456.4221496582031 247.67999267578125 458.5421447753906 247.67999267578125 C 460.6621398925781 247.67999267578125 462.2721252441406 246.96665954589844 463.37213134765625 245.5399932861328 C 464.4721374511719 244.1133270263672 465.0221252441406 242.02667236328125 465.0221252441406 239.27999877929688 C 465.0221252441406 236.55999755859375 464.4721374511719 234.4933319091797 463.37213134765625 233.0800018310547 C 462.2721252441406 231.6666717529297 460.6488037109375 230.95999145507812 458.50213623046875 230.95999145507812 C 456.38214111328125 230.95999145507812 454.7821350097656 231.6566619873047 453.7021484375 233.0500030517578 C 452.62213134765625 234.44332885742188 452.0821228027344 236.52000427246094 452.0821228027344 239.27999877929688 Z" transform="matrix(1, 0, 0, 1, -379.7749938964844, -215.70306396484375)" style="fill: rgb(13, 13, 13); white-space: pre; color: rgb(51, 51, 51);"/></svg>